<mxfile host="app.diagrams.net" modified="2023-10-10T02:59:54.518Z" agent="Mozilla/5.0 (Windows NT 10.0; Win64; x64) AppleWebKit/537.36 (KHTML, like Gecko) Chrome/117.0.0.0 Safari/537.36 Edg/117.0.2045.36" etag="Gr9o24BoYxNEv6UK-Kai" version="21.7.5" type="github">
  <diagram name="第 1 页" id="01A59Yw5dGifj4JJGW0X">
    <mxGraphModel dx="1120" dy="759" grid="1" gridSize="10" guides="1" tooltips="1" connect="1" arrows="1" fold="1" page="1" pageScale="1" pageWidth="1169" pageHeight="827" math="0" shadow="0">
      <root>
        <mxCell id="0" />
        <mxCell id="1" parent="0" />
        <mxCell id="Y2anQADIHjaZmZKwoY2r-8" value="" style="endArrow=classic;html=1;exitX=0.5;exitY=1;exitDx=0;exitDy=0;entryX=0.5;entryY=0;entryDx=0;entryDy=0;curved=1;" edge="1" parent="1" target="Y2anQADIHjaZmZKwoY2r-9">
          <mxGeometry width="50" height="50" relative="1" as="geometry">
            <mxPoint x="505" y="430" as="sourcePoint" />
            <mxPoint x="340" y="496" as="targetPoint" />
            <Array as="points">
              <mxPoint x="400" y="436" />
            </Array>
          </mxGeometry>
        </mxCell>
        <mxCell id="Y2anQADIHjaZmZKwoY2r-9" value="建立索引" style="ellipse;whiteSpace=wrap;html=1;fillColor=#ffe6cc;strokeColor=#d79b00;" vertex="1" parent="1">
          <mxGeometry x="310" y="516" width="120" height="80" as="geometry" />
        </mxCell>
        <mxCell id="Y2anQADIHjaZmZKwoY2r-10" value="" style="endArrow=classic;html=1;exitX=0.5;exitY=1;exitDx=0;exitDy=0;curved=1;entryX=0.5;entryY=0;entryDx=0;entryDy=0;" edge="1" parent="1" target="Y2anQADIHjaZmZKwoY2r-11">
          <mxGeometry width="50" height="50" relative="1" as="geometry">
            <mxPoint x="505" y="430" as="sourcePoint" />
            <mxPoint x="650" y="516" as="targetPoint" />
            <Array as="points">
              <mxPoint x="600" y="436" />
            </Array>
          </mxGeometry>
        </mxCell>
        <mxCell id="Y2anQADIHjaZmZKwoY2r-11" value="删除索引" style="ellipse;whiteSpace=wrap;html=1;fillColor=#ffe6cc;strokeColor=#d79b00;" vertex="1" parent="1">
          <mxGeometry x="590" y="516" width="120" height="80" as="geometry" />
        </mxCell>
        <mxCell id="Y2anQADIHjaZmZKwoY2r-14" value="" style="endArrow=classic;html=1;exitX=0.5;exitY=1;exitDx=0;exitDy=0;curved=1;entryX=0;entryY=0.5;entryDx=0;entryDy=0;" edge="1" parent="1" source="Y2anQADIHjaZmZKwoY2r-9" target="Y2anQADIHjaZmZKwoY2r-16">
          <mxGeometry width="50" height="50" relative="1" as="geometry">
            <mxPoint x="430" y="700" as="sourcePoint" />
            <mxPoint x="420" y="680" as="targetPoint" />
            <Array as="points">
              <mxPoint x="370" y="660" />
            </Array>
          </mxGeometry>
        </mxCell>
        <mxCell id="Y2anQADIHjaZmZKwoY2r-15" value="" style="endArrow=classic;html=1;exitX=0.5;exitY=1;exitDx=0;exitDy=0;curved=1;entryX=1;entryY=0.5;entryDx=0;entryDy=0;" edge="1" parent="1" source="Y2anQADIHjaZmZKwoY2r-11" target="Y2anQADIHjaZmZKwoY2r-16">
          <mxGeometry width="50" height="50" relative="1" as="geometry">
            <mxPoint x="590" y="650" as="sourcePoint" />
            <mxPoint x="610" y="690" as="targetPoint" />
            <Array as="points">
              <mxPoint x="650" y="660" />
            </Array>
          </mxGeometry>
        </mxCell>
        <mxCell id="Y2anQADIHjaZmZKwoY2r-16" value="添加Redis一个三小时内过期的标识表示已完成" style="ellipse;whiteSpace=wrap;html=1;aspect=fixed;fillColor=#f8cecc;strokeColor=#b85450;" vertex="1" parent="1">
          <mxGeometry x="460" y="640" width="90" height="90" as="geometry" />
        </mxCell>
        <mxCell id="Y2anQADIHjaZmZKwoY2r-22" value="传入项目id列表" style="ellipse;whiteSpace=wrap;html=1;fillColor=#ffe6cc;strokeColor=#d79b00;" vertex="1" parent="1">
          <mxGeometry x="445" y="25" width="120" height="80" as="geometry" />
        </mxCell>
        <mxCell id="Y2anQADIHjaZmZKwoY2r-23" value="" style="endArrow=classic;html=1;rounded=0;exitX=0.5;exitY=1;exitDx=0;exitDy=0;entryX=0.5;entryY=0;entryDx=0;entryDy=0;" edge="1" parent="1" source="Y2anQADIHjaZmZKwoY2r-22" target="Y2anQADIHjaZmZKwoY2r-24">
          <mxGeometry width="50" height="50" relative="1" as="geometry">
            <mxPoint x="355" y="255" as="sourcePoint" />
            <mxPoint x="505" y="155" as="targetPoint" />
          </mxGeometry>
        </mxCell>
        <mxCell id="Y2anQADIHjaZmZKwoY2r-25" style="edgeStyle=orthogonalEdgeStyle;rounded=0;orthogonalLoop=1;jettySize=auto;html=1;entryX=0.5;entryY=0;entryDx=0;entryDy=0;" edge="1" parent="1" source="Y2anQADIHjaZmZKwoY2r-24" target="Y2anQADIHjaZmZKwoY2r-26">
          <mxGeometry relative="1" as="geometry">
            <mxPoint x="505" y="245" as="targetPoint" />
          </mxGeometry>
        </mxCell>
        <mxCell id="Y2anQADIHjaZmZKwoY2r-24" value="根据项目id查找status正常的算量版本数据" style="ellipse;whiteSpace=wrap;html=1;fillColor=#ffe6cc;strokeColor=#d79b00;" vertex="1" parent="1">
          <mxGeometry x="445" y="135" width="120" height="80" as="geometry" />
        </mxCell>
        <mxCell id="Y2anQADIHjaZmZKwoY2r-30" style="edgeStyle=orthogonalEdgeStyle;rounded=0;orthogonalLoop=1;jettySize=auto;html=1;entryX=0.5;entryY=0;entryDx=0;entryDy=0;" edge="1" parent="1" source="Y2anQADIHjaZmZKwoY2r-26" target="Y2anQADIHjaZmZKwoY2r-29">
          <mxGeometry relative="1" as="geometry" />
        </mxCell>
        <mxCell id="Y2anQADIHjaZmZKwoY2r-26" value="将项目id和算量版本id拼装成对应表名并判断是否存在" style="ellipse;whiteSpace=wrap;html=1;fillColor=#ffe6cc;strokeColor=#d79b00;" vertex="1" parent="1">
          <mxGeometry x="445" y="245" width="120" height="80" as="geometry" />
        </mxCell>
        <mxCell id="Y2anQADIHjaZmZKwoY2r-29" value="根据对应的表名执行不同的索引建立操作" style="ellipse;whiteSpace=wrap;html=1;fillColor=#ffe6cc;strokeColor=#d79b00;" vertex="1" parent="1">
          <mxGeometry x="445" y="349" width="120" height="80" as="geometry" />
        </mxCell>
      </root>
    </mxGraphModel>
  </diagram>
</mxfile>
